<svg width="194" height="194" viewBox="0 0 194 194" fill="none" xmlns="http://www.w3.org/2000/svg">
<g filter="url(#filter0_d_204_337)">
<path d="M140.812 52.6668L108.397 20.3335H72.7498V36.5002H101.769L117.936 52.6668H52.5415C32.3332 52.6668 16.1665 68.8335 16.1665 89.0418C16.1665 109.25 32.3332 125.417 52.5415 125.417C70.4865 125.417 85.3598 112.322 88.2698 95.266L105.407 85.0002C105.083 86.3743 105.083 87.6677 105.083 89.0418C105.083 109.25 121.25 125.417 141.458 125.417C161.667 125.417 177.833 109.25 177.833 89.0418C177.833 68.8335 161.667 52.6668 141.458 52.6668M71.4565 95.1852C68.7082 103.349 61.2715 109.25 52.299 109.25C46.9394 109.25 41.7993 107.121 38.0096 103.331C34.2198 99.5415 32.0907 94.4014 32.0907 89.0418C32.0907 83.6822 34.2198 78.5422 38.0096 74.7524C41.7993 70.9626 46.9394 68.8335 52.299 68.8335C61.3523 68.8335 68.7082 74.8152 71.4565 82.9793H48.4998V95.1043L71.4565 95.1852ZM141.216 109.25C135.856 109.25 130.716 107.121 126.926 103.331C123.136 99.5415 121.007 94.4014 121.007 89.0418C121.007 83.6822 123.136 78.5422 126.926 74.7524C130.716 70.9626 135.856 68.8335 141.216 68.8335C146.575 68.8335 151.715 70.9626 155.505 74.7524C159.295 78.5422 161.424 83.6822 161.424 89.0418C161.424 94.4014 159.295 99.5415 155.505 103.331C151.715 107.121 146.575 109.25 141.216 109.25ZM88.9165 149.667H56.5832L105.083 173.917V157.75H137.416L88.9165 133.5V149.667Z" fill="url(#paint0_linear_204_337)"/>
</g>
<defs>
<filter id="filter0_d_204_337" x="12.1665" y="20.3335" width="169.667" height="161.583" filterUnits="userSpaceOnUse" color-interpolation-filters="sRGB">
<feFlood flood-opacity="0" result="BackgroundImageFix"/>
<feColorMatrix in="SourceAlpha" type="matrix" values="0 0 0 0 0 0 0 0 0 0 0 0 0 0 0 0 0 0 127 0" result="hardAlpha"/>
<feOffset dy="4"/>
<feGaussianBlur stdDeviation="2"/>
<feComposite in2="hardAlpha" operator="out"/>
<feColorMatrix type="matrix" values="0 0 0 0 0 0 0 0 0 0 0 0 0 0 0 0 0 0 0.25 0"/>
<feBlend mode="normal" in2="BackgroundImageFix" result="effect1_dropShadow_204_337"/>
<feBlend mode="normal" in="SourceGraphic" in2="effect1_dropShadow_204_337" result="shape"/>
</filter>
<linearGradient id="paint0_linear_204_337" x1="31.9436" y1="51.8525" x2="182.571" y2="67.0402" gradientUnits="userSpaceOnUse">
<stop stop-color="#FF0E78"/>
<stop offset="0.464772" stop-color="#3745BF"/>
<stop offset="1" stop-color="#00EB97"/>
</linearGradient>
</defs>
</svg>
