<svg width="194" height="194" viewBox="0 0 194 194" fill="none" xmlns="http://www.w3.org/2000/svg">
<path d="M86.925 119.75C89.6333 122.458 93.0458 123.732 97.1625 123.572C101.279 123.412 104.258 121.921 106.1 119.1L142.5 64.5L87.9 100.9C85.0833 102.85 83.5407 105.801 83.272 109.753C83.0033 113.705 84.221 117.037 86.925 119.75ZM52.15 149C49.7667 149 47.574 148.484 45.572 147.453C43.57 146.422 41.971 144.879 40.775 142.825C37.9583 137.733 35.7917 132.451 34.275 126.978C32.7583 121.505 32 115.846 32 110C32 101.008 33.7073 92.5583 37.122 84.65C40.5367 76.7417 45.1668 69.8625 51.0125 64.0125C56.8625 58.1625 63.7417 53.5323 71.65 50.122C79.5583 46.7117 88.0083 45.0043 97 45C105.883 45 114.225 46.6792 122.025 50.0375C129.825 53.3958 136.65 57.974 142.5 63.772C148.35 69.5657 153.008 76.3365 156.475 84.0845C159.942 91.8325 161.729 100.146 161.837 109.025C161.946 114.983 161.268 120.807 159.803 126.497C158.338 132.187 156.091 137.629 153.062 142.825C151.871 144.883 150.272 146.428 148.265 147.46C146.259 148.491 144.066 149.004 141.687 149H52.15Z" fill="url(#paint0_linear_204_349)"/>
<defs>
<linearGradient id="paint0_linear_204_349" x1="44.672" y1="66.3433" x2="165.161" y2="80.7533" gradientUnits="userSpaceOnUse">
<stop stop-color="#FF0E78"/>
<stop offset="0.464772" stop-color="#3745BF"/>
<stop offset="1" stop-color="#00EB97"/>
</linearGradient>
</defs>
</svg>
