<svg width="194" height="194" viewBox="0 0 194 194" fill="none" xmlns="http://www.w3.org/2000/svg">
<path d="M97.5 129C91.1615 129 85.9688 132.573 85.9688 136.935C85.9688 139.433 87.6735 141.671 90.3194 143.129H79.5L66 171H129L115.5 143.129H104.681C107.326 141.671 109.031 139.433 109.031 136.935C109.031 132.573 103.839 129 97.5 129ZM97.5 132.484C101.103 132.484 103.969 134.456 103.969 136.935C103.969 139.415 101.103 141.387 97.5 141.387C93.8975 141.387 91.0312 139.415 91.0312 136.935C91.0312 134.456 93.8975 132.484 97.5 132.484ZM85.9385 152.124H89.2432V155.343L94.0066 152.124H97.8433L91.6722 156.3L98.4785 160.943H94.3416L89.2432 157.47V160.943H85.9385V152.124ZM102.804 154.18C103.474 154.18 104.063 154.27 104.572 154.451C105.081 154.632 105.548 154.918 105.972 155.308V154.327H109.061V160.275C109.061 161.338 108.572 162.15 107.593 162.709C106.621 163.272 105.207 163.553 103.353 163.553C102.753 163.553 102.172 163.522 101.611 163.459C101.037 163.394 100.472 163.297 99.9202 163.17V161.521C100.458 161.734 100.985 161.892 101.499 161.994C102.015 162.1 102.533 162.154 103.053 162.154C104.06 162.154 104.798 162.002 105.268 161.699C105.737 161.396 105.972 160.921 105.972 160.275V159.821C105.548 160.206 105.082 160.49 104.572 160.671C104.063 160.852 103.474 160.943 102.804 160.943C101.631 160.943 100.661 160.626 99.8947 159.992C99.1279 159.354 98.7444 158.543 98.7444 157.558C98.7444 156.57 99.1279 155.761 99.8947 155.131C100.661 154.497 101.631 154.18 102.804 154.18ZM103.946 155.703C103.311 155.703 102.815 155.865 102.461 156.188C102.106 156.511 101.929 156.968 101.929 157.558C101.929 158.165 102.1 158.625 102.444 158.94C102.787 159.251 103.288 159.407 103.946 159.407C104.587 159.407 105.084 159.245 105.439 158.923C105.794 158.6 105.971 158.145 105.971 157.558C105.971 156.968 105.794 156.511 105.439 156.188C105.084 155.865 104.587 155.703 103.946 155.703H103.946Z" fill="url(#paint0_linear_204_355)"/>
<path d="M140.645 56.3333L108.231 24H72.5833V40.1667H101.603L117.769 56.3333H52.375C32.1667 56.3333 16 72.5 16 92.7083C16 112.917 32.1667 129.083 52.375 129.083C70.32 129.083 85.1933 115.988 88.1033 98.9325L105.24 88.6667C104.917 90.0408 104.917 91.3342 104.917 92.7083C104.917 112.917 121.083 129.083 141.292 129.083C161.5 129.083 177.667 112.917 177.667 92.7083C177.667 72.5 161.5 56.3333 141.292 56.3333M71.29 98.8517C68.5417 107.016 61.105 112.917 52.1325 112.917C46.7729 112.917 41.6328 110.788 37.843 106.998C34.0533 103.208 31.9242 98.0679 31.9242 92.7083C31.9242 87.3488 34.0533 82.2087 37.843 78.4189C41.6328 74.6291 46.7729 72.5 52.1325 72.5C61.1858 72.5 68.5417 78.4817 71.29 86.6458H48.3333V98.7708L71.29 98.8517ZM141.049 112.917C135.69 112.917 130.55 110.788 126.76 106.998C122.97 103.208 120.841 98.0679 120.841 92.7083C120.841 87.3488 122.97 82.2087 126.76 78.4189C130.55 74.6291 135.69 72.5 141.049 72.5C146.409 72.5 151.549 74.6291 155.339 78.4189C159.128 82.2087 161.257 87.3488 161.257 92.7083C161.257 98.0679 159.128 103.208 155.339 106.998C151.549 110.788 146.409 112.917 141.049 112.917Z" fill="url(#paint1_linear_204_355)"/>
<defs>
<linearGradient id="paint0_linear_204_355" x1="72.1482" y1="137.619" x2="130.244" y2="145.967" gradientUnits="userSpaceOnUse">
<stop stop-color="#FF0E78"/>
<stop offset="0.464772" stop-color="#3745BF"/>
<stop offset="1" stop-color="#00EB97"/>
</linearGradient>
<linearGradient id="paint1_linear_204_355" x1="31.7771" y1="45.5656" x2="180.702" y2="67.5121" gradientUnits="userSpaceOnUse">
<stop stop-color="#FF0E78"/>
<stop offset="0.464772" stop-color="#3745BF"/>
<stop offset="1" stop-color="#00EB97"/>
</linearGradient>
</defs>
</svg>
